<svg xmlns="http://www.w3.org/2000/svg" viewBox="0 0 358.26 148.43"><defs><style>.cls-1{fill:#1da1f2;}.cls-2{fill:#41c9b4;fill-rule:evenodd;}</style></defs><title>アセット 3</title><g id="レイヤー_2" data-name="レイヤー 2"><g id="レイヤー_1-2" data-name="レイヤー 1"><g id="アートワーク_9" data-name="アートワーク 9"><g id="グループ_1" data-name="グループ 1"><g id="Logo_FIXED" data-name="Logo FIXED"><path id="パス_1" data-name="パス 1" class="cls-1" d="M51.05,140.33a94.36,94.36,0,0,0,95-93.72V45.35c0-1.46,0-2.91-.07-4.29a68.49,68.49,0,0,0,16.69-17.31A67.78,67.78,0,0,1,143.49,29a33.36,33.36,0,0,0,14.69-18.49A67.31,67.31,0,0,1,137,18.62,33.41,33.41,0,0,0,79.24,41.48a30.52,30.52,0,0,0,.9,7.61,94.68,94.68,0,0,1-68.83-34.9A33.38,33.38,0,0,0,21.67,58.72,32.72,32.72,0,0,1,6.58,54.56V55A33.41,33.41,0,0,0,33.37,87.72a32.75,32.75,0,0,1-8.8,1.18,31.84,31.84,0,0,1-6.3-.64,33.36,33.36,0,0,0,31.17,23.2A67.17,67.17,0,0,1,8,125.7a60.54,60.54,0,0,1-8-.49,93,93,0,0,0,51,15.1"/></g></g></g><path id="パス_44" data-name="パス 44" class="cls-2" d="M245.9,129.65h93.63V18.77H271.92a2.83,2.83,0,0,0-1.66.82c-7.94,8.56-15.9,17.27-23.67,25.9a3.49,3.49,0,0,0-.69,2.11ZM348.89,0a9.39,9.39,0,0,1,9.37,9.39V139a9.39,9.39,0,0,1-9.37,9.39H236.52a9.4,9.4,0,0,1-9.4-9.38h0V44.15a13,13,0,0,1,3.66-9.4L259,3.91A11.18,11.18,0,0,1,267.83,0ZM264.62,65.38a7.51,7.51,0,0,1,0-15h12.74V37.55a7.49,7.49,0,0,1,15,0V57.86a7.51,7.51,0,0,1-7.49,7.51Z"/></g></g></svg>