<svg xmlns="http://www.w3.org/2000/svg" viewBox="0 0 1191.3 269.64"><defs><style>.cls-1{fill:#2f2f2f;}</style></defs><title>アートワーク 8</title><g id="レイヤー_2" data-name="レイヤー 2"><g id="レイヤー_1-2" data-name="レイヤー 1"><g id="アートワーク_8" data-name="アートワーク 8"><path class="cls-1" d="M202.35,269.64c-20.35,0-42.11-3.83-63.18-14.55-26.2-13.33-42.7-30.82-49-52-8.59-28.61,5-53,5.58-54a8.22,8.22,0,1,1,14.3,8.13c-.09.16-10.7,19.58-4.06,41.36,5,16.6,18.74,30.67,40.69,41.84,51.74,26.33,109.37,5.46,131.75-4.74,36-16.42,55.58-37.09,57.94-46.53l1.1-4.4a3.17,3.17,0,0,1,3.52-2.37l4.49.62c8.16,1.13,19.61-6.44,25.6-25.72,4.39-14.15,3.9-32-7.54-37.71C354,114.84,346,114.05,339,117.18c-14.69,6.55-20.77,28.13-20.83,28.34a8.23,8.23,0,0,1-15.88-4.3c.32-1.19,8.1-29.23,29.92-39,11.66-5.23,24.66-4.33,38.66,2.67,14.5,7.25,25,27.78,15.89,57.29-5.28,17-17.08,33.27-33,36.76A9,9,0,0,0,348,203c-9.84,16.15-33.36,34.27-62.77,47.67C269.55,257.78,238.12,269.64,202.35,269.64Z"/><path class="cls-1" d="M154.49,131.93V111.31A8.22,8.22,0,0,1,162,103a8,8,0,0,1,8.49,8v21.25a8,8,0,0,1-8.49,8A8.21,8.21,0,0,1,154.49,131.93Z"/><path class="cls-1" d="M232.49,129V109.73a8.21,8.21,0,0,1,7.51-8.3,8,8,0,0,1,8.49,8v19.93a8,8,0,0,1-8.49,8A8.22,8.22,0,0,1,232.49,129Z"/><path class="cls-1" d="M185.13,222.24a8.16,8.16,0,0,1-3.81-.94c-13.27-6.94-19.18-15-17.58-24s10.32-20.92,63.76-33.11c27.56-6.28,54.14-9.73,55.26-9.87a8.23,8.23,0,0,1,2.09,16.32c-.25,0-26.2,3.4-52.57,9.34-36.88,8.32-47.9,15.58-51.09,18.68a1.92,1.92,0,0,0-.05,2.75,31.18,31.18,0,0,0,7.48,5.12,8.52,8.52,0,0,1,4.29,10.16A8.25,8.25,0,0,1,185.13,222.24Z"/><path class="cls-1" d="M137,96.84A312.87,312.87,0,0,1,74.51,91,351.52,351.52,0,0,1,5.17,69.75a8.32,8.32,0,0,1-5-9,8.24,8.24,0,0,1,11.33-6.19A334.33,334.33,0,0,0,77.67,74.82c4.43.87,8.73,1.61,13,2.25a5.28,5.28,0,0,0,6-4.55,64.48,64.48,0,0,1,13.6-32.3C129.81,15.44,167.11,2,221.12.28c48.48-1.55,82.26,3.33,103.28,14.9,18.9,10.42,28.48,26.09,30.14,49.32a25.59,25.59,0,0,1-6.69,19.37A22.88,22.88,0,0,1,331,91.12h-.27c-26.67-.3-53.36,0-79.34.83-23,.75-42.34,1.82-59.44,2.77C171.26,95.87,153.71,96.84,137,96.84Zm-24-23a5.29,5.29,0,0,0,4.94,6c22.39,1.23,44.7,0,73.11-1.58,17.19-1,36.67-2,59.82-2.79,26.22-.85,53.15-1.13,80.05-.84H331a6.42,6.42,0,0,0,4.85-2.08,9.07,9.07,0,0,0,2.26-6.91c-1.82-25.42-12.43-52.26-116.48-48.95-48.25,1.54-82.3,13.19-98.48,33.69A48.31,48.31,0,0,0,113,73.88Z"/><path class="cls-1" d="M563.23,85.89c6.31-16.74.25-34.39-13.9-44.74-11.55-8.44-27.11-10.54-41.05-10.33a163.65,163.65,0,0,0-31,3.35c-3.56.75-7.94,1.51-12.28,2.65-8.55-3.91-21.12-.53-23.11,9.91-3.14,16.38-2.23,34.11-2.17,50.73q.09,24.27.69,48.53c.4,15.82.82,31.66,1.82,47.46,1.1,17.39,1.5,34.78,7.74,51.22,2.27,6,7.1,10.53,13.84,10.53,6.05,0,12.51-4.42,13.84-10.53a108.25,108.25,0,0,0,2.83-26.48c-.26-7.91-.87-15.81-1.24-23.71-.75-16.17-1.74-32.32-2.44-48.49-.1-2.22-.18-4.43-.27-6.65a11.58,11.58,0,0,0,4,.63c8.57-.18,16.93-1,25-4.05a119.45,119.45,0,0,0,23.12-11.34C543.34,115,556.94,102.61,563.23,85.89ZM534.86,76c0-.18-1.58,2.93-1.87,3.39-2.92,4.79-9.35,10.73-13.59,13.85a127.74,127.74,0,0,1-20.95,12.43c-5.54,2.64-14.39,6.53-21.29,9.17q-.74.29-1.44.63c-.17-5.66-.33-11.32-.45-17-.27-11.84.09-24.13-.66-36.16,2.38-.57,4.73-1.11,7-1.44a172.23,172.23,0,0,1,25.67-1.77,89.48,89.48,0,0,1,10.09.51c-.12,0,3.55.69,4,.79,1.37.32,2.74.68,4.08,1.1.86.26,1.72.56,2.56.87l.39.18c1.19.63,2.33,1.32,3.5,2A8.58,8.58,0,0,1,535.11,68c.14.26.23.42.28.5.13.39.24.79.34,1.19-.29-.79-.05,2.63.14,2.79l-.18.85C535.46,74.21,535.18,75.12,534.86,76Z"/><path class="cls-1" d="M641.22,110.65a7.53,7.53,0,0,0,.65-1.26A10,10,0,0,0,637.8,97c-21.21-13.56-48.1-9.87-67,5.75s-28.08,42.41-24.38,66.51c1.91,12.4,9,23.93,19.94,30.33,10.46,6.11,23,6.56,34.59,4,22.93-5.06,43.33-24.6,49.46-47.25A51.55,51.55,0,0,0,646,117.55,43.82,43.82,0,0,0,641.22,110.65Zm-54.68,63.6c2.48.12.81.17,0,0Zm27.34-11.67c-1.32,1.36-2.72,2.62-4.14,3.87a19.7,19.7,0,0,1-2.46,1.83c-1.62,1.07-3.33,1.93-5,2.9-.2.11-1,.51-1.29.64-.6.23-1.22.45-1.83.65-1.85.62-3.71,1.05-5.6,1.53-.24.06-.84.14-1.2.2s-.73.07-1.1.09c-1.58.08-3.14,0-4.72,0l-.1,0c-1.09-.29-2.17-.56-3.25-.88-.18,0-.67-.26-1.1-.44l-.7-.4-.83-.47c-.48-.44-.95-.9-1.41-1.36l-.65-.82c-.27-.51-1-1.66-1-1.82l-.3-.54c-.46-1.29-.76-2.64-1.13-4,0,0-.13-.67-.23-1.14-.07-.64-.2-1.83-.21-2a53.05,53.05,0,0,1,0-5.64c.05-1.06.13-2.13.24-3.19-.07.69-.46,2.33.13-.8.39-2.1.84-4.19,1.42-6.25a50,50,0,0,1,8.8-17.47,41.13,41.13,0,0,1,19.52-12.91,8.15,8.15,0,0,0,.7,1.34c1,1.43.71.69.43.12.63,1.14.94,2.5,1.62,3.62,1.19,2,4.27,4.34,5.42,5.27-.22-.16,1,.94,1,.94.67.66,1.41,1.25,2.08,1.92s1.28,1.41,1.94,2.1l.66.75.17.24a36,36,0,0,1,2.28,3.94,37.1,37.1,0,0,0,1.24,3.86s.13.58.23,1c.06.58.16,1.46.17,1.65,0,.72,0,1.44,0,2.17,0,.49,0,.85,0,1.13a3.14,3.14,0,0,0-.15.6C622.2,152.12,618.76,157.55,613.88,162.58Z"/><path class="cls-1" d="M708.52,163.05c.46,0,.91-.05,1.36,0C708.62,163,708.36,163,708.52,163.05Z"/><path class="cls-1" d="M747.21,96.82c-7.78-6.38-20.1-11.33-29.61-8.86a28.49,28.49,0,0,0-5.38-1.76c-13.14-3-26.18,5.12-35.08,14-17.39,17.42-27.22,44.2-16.34,67.6,10.13,21.79,37.92,32.41,60.35,24.77,24.19-8.25,39.59-31.2,41.59-56.2C763.9,121.83,758.71,106.26,747.21,96.82Zm-60,51.62c-.58-2.57-.06-.71,0,0Zm10.54,13.07,0,0C698.27,161.76,698.93,162.08,697.74,161.51ZM733,140.23c-1,3.79-1.3,4.61-3.76,8.68a31.4,31.4,0,0,1-11.78,11.48c-.69.39-1.41.76-2.14,1.11l-.35.11c-1.67.54-3.33,1-5,1.39a4.6,4.6,0,0,1-1.4.05c-.26,0-.52,0-.78,0-.72,0-1.44,0-2.16,0,0,0-1.25-.12-2.07-.18s-3-.6-3.57-.75c-.85-.23-1.67-.52-2.5-.79-1.39-.69-2.7-1.48-4-2.27l-.33-.24c-.38-.4-1.7-1.61-1.89-1.77s-.28-.29-.51-.53c-.33-.45-.82-1.11-.93-1.29-.41-.66-1.68-3.66-1.51-2.94-.37-1.19-.7-2.38-1-3.61l-.06-.25c-.06-1-.13-1.93-.14-2.91a35.33,35.33,0,0,1,4.51-16.49c3.5-6.41,7.87-12.15,13.83-16.09a10.11,10.11,0,0,1,3.81-1.79c3.57,3.37,7,5.56,12.44,5.92.08,0,.77.08,1.16.1l1.31.33q.68.2,1.35.42a13.79,13.79,0,0,0,1.78,1.1l.59.33c.56.49,1.07,1,1.61,1.52.7.62.86.67.89.66a3.32,3.32,0,0,0,.47,1c.47.83,1,1.68,1.43,2.55,0,.1.09.34.27.87a25.49,25.49,0,0,1,1.1,4.45A26.49,26.49,0,0,1,733,140.23Z"/><path class="cls-1" d="M869.25,53.72c4.53-5,5.12-13,0-17.9-8.93-8.58-22.38-6.41-33.69-5.91l-29.91,1.34-29.91,1.34c-4.81.21-9.64.34-14.44.78-7.11.66-14,.65-19.33,6.1-4.61,4.72-5.21,13.41,0,18.05,5.86,5.22,11.94,5.2,19.33,5.4,4.82.12,9.63-.09,14.44-.2l11.17-.26c-.74,3.78-1.15,7.63-1.61,11-1,7.52-1.94,15.06-2.95,22.58-1.68,12.39-3.78,27.13-5.78,40.4q-3.12,20.84-6.57,41.61c-2.47,14.94-7,31-5.62,46.22.61,6.88,4.4,13,11.39,14.95,6.12,1.69,14.73-.95,17.51-7.12,6.24-13.84,7.72-29,9.87-43.85q3.35-23.13,6.33-46.32,2.76-21.39,5.21-42.83c.81-7.15,1.62-14.3,2.35-21.45.5-4.77,1.25-10.57,1-16l17.56-.42C846.58,61.05,861.14,62.64,869.25,53.72Z"/><path class="cls-1" d="M953.47,71c-7-1.43-13.75-2.93-21-2.82-6.52.1-13.1.61-19.59,1.32-13.66,1.49-27.87,2.31-41.11,6.12-5.41,1.55-7.85,5.51-8,9.64a10.75,10.75,0,0,0-3.6,5.77c-2.89,14.52-5.62,29.12-9.09,43.52-1.7,7.06-3.55,14.09-5.45,21.09A194.08,194.08,0,0,0,841.24,178c-.56,3.72.06,7.39,2.26,10.06a14.93,14.93,0,0,0,2,7,19.24,19.24,0,0,0,11.78,8.39c7.72,2,16.34.79,24.17.26,17-1.16,33.74-2.22,50.22-6.95a12.48,12.48,0,0,0,9-11.77c0-4.88-3.75-11-9-11.77a152.5,152.5,0,0,0-21.63-2c-6.84,0-13.6.45-20.42.92-6.46.44-13,.67-19.41,1.43-.93.11-1.87.25-2.8.39a96.92,96.92,0,0,0,3.59-10.3c1.22-4.28,2.33-8.59,3.37-12.91a11.86,11.86,0,0,0,1.27-.25A132.26,132.26,0,0,1,901,146.62c9.57-.52,18.63-.57,28-3,8.28-2.14,10.33-14.64,2.45-18.74-15.85-8.24-34.72-6.16-51.7-1,1.44-8.58,2.54-17.21,3.22-25.92,10.3.26,20.76-.79,31-1.53,6.68-.49,13.41-1.18,20-2.19,7-1.06,13-3.37,19.48-5.94,3.74-1.47,6.6-4.4,6.6-8.66C960.07,75.87,957.3,71.74,953.47,71Z"/><path class="cls-1" d="M1032.31,59.92h.57c1.37.27,2.78.61,4.12,1,.71.2,1.43.43,2.13.69,0,.09,1.38.8,1.76,1,2.51,1.52,6,5.53,9.55,8.19,7.32,5.44,15.56-2.17,16.31-9.35,1.12-10.66-8.47-20.41-17-25.34-9.54-5.53-21-6.59-31.63-4.17-20.34,4.63-37.45,24.08-41.33,44.35-2.58,13.42.53,26.05,9.48,36.49,5.9,6.88,14.14,10.69,22.43,13.83,3.34,1.27,6.74,2.32,10.11,3.48l3.17,1.13.67.31c1,.55,2,1.11,3,1.69l0,0c.15.13.28.27.42.41a.38.38,0,0,1,0-.1l.17.24,0-.09-.06-.08,0,0,0-.12-.06,0a.47.47,0,0,1,.06-.09c0,.09,0,.18.07.27a1.36,1.36,0,0,1,.12.12v.06l-.11-.13,0,.07a1.27,1.27,0,0,0,.07.12h0l0,0a1.74,1.74,0,0,1,.11.18v-.09l0,0h0s0,.05,0,.07l0,0v-.09l0,0s0,.08,0,.08c.16.31.12.39,0,.33s0-.15,0-.24l0-.09,0,0v0a.52.52,0,0,1-.15-.2v.05l0,.13c0,.11,0,.19.07.28v0l-.12-.13c0,.35-.06.71-.06.89-.14.51-.29,1-.43,1.5a6.63,6.63,0,0,0-.24,1,8,8,0,0,0-.75,1c-.62.9-1.19,1.93-1.76,2.86l-.8,1.15a1.77,1.77,0,0,0-.17.2c-1.81,2.17-3.77,4.21-5.77,6.2-4,4-8.19,7.54-12.38,11.24a214.18,214.18,0,0,1-26.22,20.1c-5.23,3.41-7.74,9.84-5.15,15.73,2.41,5.48,8.78,9.27,14.85,7.29a136.6,136.6,0,0,0,52.41-30.85c15.18-14.29,27.9-37.92,14.07-57.56-5.7-8.1-13.7-12.59-22.76-16.09-2.91-1.12-5.87-2.07-8.84-3-1.6-.5-3.21-1-4.79-1.55l-2.3-.83,0,0a31.42,31.42,0,0,0-3.94-2.24c-.44-.46-1-.86-1.4-1.35l-.15-.16c-.08-.14-.2-.36-.42-.71s-.58-1-.84-1.45c-.08-.32-.4-1.31-.4-1.5,0,.3,0,.51,0,.69h0c0,1.87,0-2.24,0-2.49a8.7,8.7,0,0,1,.1-1.11c.15-.73.33-1.46.53-2.17.28-1,.63-2,1-3l.35-.84c.26-.52.82-1.69.92-1.88q.72-1.39,1.53-2.73c.53-.9,1.11-1.77,1.7-2.63l.19-.27.74-.86a56.62,56.62,0,0,1,5-5l.13-.11.46-.29c1.09-.69,2.2-1.33,3.32-2,2.51-1.46,1.32-.62.63-.36a36.53,36.53,0,0,1,4.46-1.27c-.63.14-2.68,0,.37,0C1030.39,59.91,1031.35,59.92,1032.31,59.92Zm.61,0c1.82,0,.69.1,0,0Zm-6.4,74.11,0-.07a.8.8,0,0,1,.09.14v0Zm.09.12Z"/><path class="cls-1" d="M1026.56,134.24v0l0,0v.06Z"/><path class="cls-1" d="M1026.36,133.93a.69.69,0,0,1,0,.1V134l-.06-.06v-.07l0,0,0,.09c-.07-.08-.15-.15-.23-.23a1,1,0,0,0,.26.7,2.83,2.83,0,0,1,0-.3Z"/><path class="cls-1" d="M1026.3,133.72l0,0v0l0,0Z"/><path class="cls-1" d="M1026.6,134.26h0Z"/><path class="cls-1" d="M1190.3,66.31q-1.46-9.2-3.09-18.37c-2-11.29-19.47-10.48-22,0q-2.13,8.73-4.41,17.41c-1.68,6.35-2.16,12.86-2.88,19.38-1.34,12.22-2.33,24.49-3.58,36.72-1.37,13.49-2.87,26.08-4.65,38.75a206.13,206.13,0,0,1-15.35-26.35c-5.07-10.14-9.68-20.52-14.4-30.83-2.73-6-5.37-12-8.32-17.84-2.49-4.93-5.08-9.8-6.78-15.05-1.36-14.18-24.59-17.17-27.72-2-3.94,19.19-5.75,38.94-8.35,58.35-1.24,9.26-2.37,18.5-3.22,27.81-.91,10,.5,19.76,1.9,29.66.65,4.62,6.14,7.95,10.44,7.95,5.11,0,8.68-3.46,10.45-7.95,3.6-9.11,6.55-17.89,8-27.59,1.16-7.95,2.11-15.9,3-23.87,2.55,6.09,5.16,12.17,7.91,18.17,10.66,23.24,24.43,44.13,45.37,59.28,8.38,6.06,22.84,0,24.7-10.05q7-38,11.24-76.42c1.34-12.16,2.5-24.48,2.77-36.72A112,112,0,0,0,1190.3,66.31Z"/></g></g></g></svg>