<svg xmlns="http://www.w3.org/2000/svg" viewBox="0 0 393.46 90.39"><defs><style>.cls-1{fill:#ff841f;}</style></defs><title>アセット 12</title><g id="レイヤー_2" data-name="レイヤー 2"><g id="完成イメージ"><path class="cls-1" d="M136.54,69.43c-.86.58-1.7,1.17-2.54,1.79-1.59,1.16-3.16,2.38-4.67,3.65s-3.19,2.78-4.72,4.25c-.31.29-.61.59-.91.89l-.13.13c-1.76,1.76-3.45,3.6-5,5.49-.17.19-.33.38-.49.58q-1.67,2-3.21,4.11c-.53.05-1.07.07-1.61.07a20.7,20.7,0,0,1-9.39-2.23h0l-.87-.46,0,0h0l-.08,0A31.23,31.23,0,0,0,99.06,86a33.79,33.79,0,0,0-26.12,1.21c-.41.19-.81.4-1.2.6l0,0-.35.18a.55.55,0,0,1-.15.08s0,0,0,0a20.89,20.89,0,0,1-15.64,1.37,20,20,0,0,1-4.86-2.22,20.8,20.8,0,0,1-9.28-12.84,20.8,20.8,0,0,1,2.83-16.29,20.9,20.9,0,0,1,6.13-2.73,13,13,0,0,0-.55,11.22h0a12.9,12.9,0,0,0,11.87,7.85c.43,0,.86,0,1.29-.07a11.37,11.37,0,0,0,1.65-.28,12.8,12.8,0,0,0,4-1.66l.3-.2a33.14,33.14,0,0,1,6.52-3.34c.43-.17.86-.33,1.29-.47a32.88,32.88,0,0,1,4.76-1.22c.3-.06.61-.11.92-.15L83,67l.22,0a35.15,35.15,0,0,1,8.37,0l.9.13A33.5,33.5,0,0,1,108,73.65q2.17-2.54,4.52-4.86c1.32-1.32,2.67-2.6,4.07-3.83a87.72,87.72,0,0,0-12.37-14.22l-.71-.66A88.85,88.85,0,0,0,91,40.6c-.8-.51-1.61-1-2.44-1.47a87,87,0,0,0-13.68-6.48,139.69,139.69,0,0,0,6.08-13c.41-1,.82-2.06,1.21-3.1a5.55,5.55,0,0,0,.2-.52,86,86,0,0,0-11,1.3A88.42,88.42,0,0,0,1.54,83.41C.91,80.82.39,78.17,0,75.48A88.37,88.37,0,0,1,87,0h.81a88.52,88.52,0,0,1,12.9,1,141.16,141.16,0,0,1-3.52,15.44c-.16.56-.32,1.1-.48,1.64q-1,3.53-2.28,6.94a89,89,0,0,1,34.68,30.68c.59.9,1.17,1.81,1.73,2.74a.41.41,0,0,1,0,.09,1.35,1.35,0,0,1,.14.22c.11.16.19.32.28.47A86.8,86.8,0,0,1,136.54,69.43Z"/><path class="cls-1" d="M180.39,73.46H148.65V16h10.66V64h21.84A70.73,70.73,0,0,1,180.39,73.46Z"/><path class="cls-1" d="M225.1,73.46H191.57V16H224.5a71.84,71.84,0,0,1-.76,9.39H202.23V39.25h16v9.21h-16V64.08H226A73.08,73.08,0,0,1,225.1,73.46Z"/><path class="cls-1" d="M260.86,73.46H249.25c-6.31-18.6-12.11-37.71-17.06-57a69.07,69.07,0,0,1,10.49-.94l11.52,41.3a25.2,25.2,0,0,1,.85,4.7h.77a21.37,21.37,0,0,1,.85-4.7l11.69-41.3a57.24,57.24,0,0,1,10,.94C273.23,35.92,267.34,54.77,260.86,73.46Z"/><path class="cls-1" d="M321.7,73.46H288.16V16H321.1a70.18,70.18,0,0,1-.77,9.39h-21.5V39.25h16v9.21h-16V64.08h23.72A73.08,73.08,0,0,1,321.7,73.46Z"/><path class="cls-1" d="M369.91,73.46h-38.4l-.59-8.11,26.7-40H332.79A90,90,0,0,1,332.2,16h37.37l.68,8.11-26.7,40h27.13A65.82,65.82,0,0,1,369.91,73.46Z"/><path class="cls-1" d="M382.8,73.46V16h10.66V73.46Z"/></g></g></svg>