<svg xmlns="http://www.w3.org/2000/svg" viewBox="0 0 1311.23 483.82"><defs><style>.cls-1{fill:#3963d6;}.cls-2{fill:#ff7223;}</style></defs><title>アートワーク 1</title><g id="レイヤー_2" data-name="レイヤー 2"><g id="レイヤー_1-2" data-name="レイヤー 1"><g id="アートワーク_1" data-name="アートワーク 1"><g id="アートワーク_1-2" data-name="アートワーク 1"><path class="cls-1" d="M226.52,333.25H0l127.71-298h81.73c26.78,0,58.72,19.49,70.33,43.63,19.82,41.2,7.19,82.08-20.64,105.37a84.17,84.17,0,0,1,30.28,64.68C289.41,295.42,251.59,333.25,226.52,333.25Zm-166.81-39h51.63l94.41-219H153.57Z"/><rect class="cls-1" x="674.23" y="120.25" width="39" height="213"/><path class="cls-1" d="M656.32,194.31c0-45.43-37-82.35-82.3-81.93-44.92.41-80.79,37.71-80.79,82.64V333.25h39v-57h42.55a81.21,81.21,0,0,0,20.15-2.54L612,333.25h44.32l-25.39-79.61A81.87,81.87,0,0,0,656.32,194.31ZM532.23,237.25V195.06c0-22.05,17.94-42,39.94-43.52a43,43,0,0,1,45.77,45.76c-1.48,22-21.47,39.95-43.52,39.95Z"/><path class="cls-1" d="M475.23,334.25l-.26-138a84.37,84.37,0,0,0-168.74,0l0,138h39v-58h90l-.17,58Zm-129-97V196.56a45,45,0,1,1,90-.14l-.12,40.83Z"/><path class="cls-1" d="M1291.23,140.25v173h-541v-173h541m20-20h-581v213h581v-213Z"/><path class="cls-2" d="M959.35,4.72C950.5-17.7,798.48,46.65,783.48,53c-7.76-13.16-20.24-21.48-29.14.68-22.52,56.09,19.18,56,70.74,37C803.35,169.89,789,324.74,833,298.17c20.48-12.35,22.92-127.53,25.07-143,1.14-8.17,6.8-51,5.53-81.19C915,48.86,963.23,14.55,959.35,4.72Z"/><path class="cls-2" d="M1011.55,183.57c-4.49-12.46-15.36-23.83-28-28-40.15-13.25-108.52,42.67-107.5,95.5q0,.48,0,1.23c.14,4.07,1.21,31.87,21.7,44.55,14.26,8.81,33.82,7.77,49.77-2.28,17.71-11.43,40-30.29,54.5-59.5C1009.39,220.23,1018.3,202.28,1011.55,183.57Zm-72.5,80.5-4.61,5.12a8.73,8.73,0,0,1-11.82,1.06c-5.09-3.91-10.44-11.42-7.57-25.18,5-24,24-48,57-55S939.05,264.07,939.05,264.07Z"/><path class="cls-2" d="M1128.05,184.07c-11.35,9.69-31.91,31.65-56.09,59.25-11.93-25.89,7.29-64.19-5.41-71.75-6.15-3.66-16,1.89-17.5,3.5-9.5,10.5-14.5,47.5-12.73,59.84a62.36,62.36,0,0,0,15.09,32.18c-60.24,70.59-132.06,162.14-144.36,190-19,43,27,25,38,9,16-23.22,214-279,214-279C1163.05,177.07,1169.05,149.07,1128.05,184.07Z"/><path class="cls-2" d="M1202.13,205.61a2.66,2.66,0,0,1-.17-5c24.42-11.24,52.61,5.47,61-9.15,2.74-4.8,1-10.45-14.09-18.28-30.84-15.95-84.11,5.91-85.63,27.15-1.13,15.85,6.79,26.63,29.24,32.37,35.22,9,41.24,7.08,41.24,12,0,16.71-84.53,17.75-84,39.16.52,23.49,105.94,4.69,111.2-39.16C1263.78,220.17,1236.19,216.34,1202.13,205.61Z"/></g></g></g></g></svg>