<svg xmlns="http://www.w3.org/2000/svg" viewBox="0 0 17.37 13.03"><defs><style>.cls-1{fill:#5b5b5b;}</style></defs><title>グループ 5</title><g id="レイヤー_2" data-name="レイヤー 2"><g id="レイヤー_1-2" data-name="レイヤー 1"><g id="グループ_5" data-name="グループ 5"><path id="パス_15" data-name="パス 15" class="cls-1" d="M9.43,6.67l7.68-4.2A.48.48,0,0,0,17.35,2a2.32,2.32,0,0,0-2.3-2H2.32A2.32,2.32,0,0,0,0,2a.47.47,0,0,0,.23.47l7.68,4.2A1.52,1.52,0,0,0,9.43,6.67Z"/><path id="パス_16" data-name="パス 16" class="cls-1" d="M10.33,8.3A3.43,3.43,0,0,1,7,8.3L.69,4.82A.46.46,0,0,0,.06,5,.46.46,0,0,0,0,5.22V10.7A2.32,2.32,0,0,0,2.32,13H15.05a2.32,2.32,0,0,0,2.32-2.33h0V5.22a.46.46,0,0,0-.69-.4Z"/></g></g></g></svg>