<svg xmlns="http://www.w3.org/2000/svg" viewBox="0 0 44.34 50.19"><defs><style>.cls-1{fill:#41c9b4;fill-rule:evenodd;}</style></defs><title>パス 44</title><g id="レイヤー_2" data-name="レイヤー 2"><g id="レイヤー_1-2" data-name="レイヤー 1"><path id="パス_44" data-name="パス 44" class="cls-1" d="M6.35,43.83H38V6.35H15.15a.93.93,0,0,0-.57.27c-2.68,2.9-5.37,5.84-8,8.76a1.23,1.23,0,0,0-.23.71ZM41.17,0a3.18,3.18,0,0,1,3.17,3.18V47a3.19,3.19,0,0,1-3.17,3.18h-38A3.18,3.18,0,0,1,0,47H0V14.93a4.39,4.39,0,0,1,1.24-3.18L10.78,1.32a3.79,3.79,0,0,1,3-1.31ZM12.68,22.11a2.56,2.56,0,0,1-2.47-2.62A2.53,2.53,0,0,1,12.68,17H17V12.69a2.53,2.53,0,0,1,5.06,0h0v6.87a2.54,2.54,0,0,1-2.53,2.54Z"/></g></g></svg>