<svg xmlns="http://www.w3.org/2000/svg" viewBox="0 0 55 44.71"><defs><style>.cls-1{fill:#1da1f2;}</style></defs><title>アートワーク 9</title><g id="レイヤー_2" data-name="レイヤー 2"><g id="レイヤー_1-2" data-name="レイヤー 1"><g id="アートワーク_9" data-name="アートワーク 9"><g id="グループ_1" data-name="グループ 1"><g id="Logo_FIXED" data-name="Logo FIXED"><path id="パス_1" data-name="パス 1" class="cls-1" d="M17.26,44.71A31.91,31.91,0,0,0,49.38,13V12.6c0-.5,0-1,0-1.46A23.07,23.07,0,0,0,55,5.29a22.86,22.86,0,0,1-6.48,1.78,11.29,11.29,0,0,0,5-6.25,22.84,22.84,0,0,1-7.16,2.74,11.3,11.3,0,0,0-19.53,7.73,10.16,10.16,0,0,0,.31,2.57A32,32,0,0,1,3.82,2.06,11.28,11.28,0,0,0,7.33,17.11a11.06,11.06,0,0,1-5.11-1.4v.14a11.3,11.3,0,0,0,9.06,11.07,11.07,11.07,0,0,1-3,.4,10.84,10.84,0,0,1-2.13-.22A11.28,11.28,0,0,0,16.71,35a22.68,22.68,0,0,1-14,4.81A22,22,0,0,1,0,39.6a31.45,31.45,0,0,0,17.25,5.1"/></g></g></g></g></g></svg>